<svg width="78" height="78" viewBox="0 0 78 78" fill="none" xmlns="http://www.w3.org/2000/svg">
<path d="M38.9999 78C60.539 78 77.9999 60.5391 77.9999 39C78 17.4609 60.5391 0 39 0C17.4609 0 -8.83105e-06 17.4609 -1.97247e-05 39C-3.06184e-05 60.5391 17.4609 78 38.9999 78Z" fill="url(#paint0_linear_11852_66683)"/>
<mask id="mask0_11852_66683" style="mask-type:alpha" maskUnits="userSpaceOnUse" x="3" y="3" width="72" height="72">
<path d="M39 75C58.8822 75 75 58.8822 75 39C75 19.1177 58.8823 3 39 3C19.1178 3 2.99999 19.1177 2.99998 39C2.99997 58.8822 19.1177 75 39 75Z" fill="url(#paint1_linear_11852_66683)"/>
</mask>
<g mask="url(#mask0_11852_66683)">
<path d="M50.0243 45.3234C52.1396 45.3234 54.1682 46.1923 55.664 47.7389C57.1597 49.2856 58 51.3833 58 53.5706L57.9995 71.8365C57.9995 77.1842 55.9451 82.3129 52.2882 86.0943C48.6313 89.8756 43.6714 92 38.4998 92C33.3281 92 28.3683 89.8756 24.7113 86.0943C21.0544 82.3129 19 77.1842 19 71.8365L19.0005 53.5706C19.0005 51.3833 19.8408 49.2856 21.3365 47.7389C22.8322 46.1923 24.8609 45.3234 26.9762 45.3234H50.0243ZM38.4896 16C40.1189 16 41.7322 16.3318 43.2374 16.9765C44.7427 17.6213 46.1104 18.5662 47.2625 19.7575C48.4145 20.9488 49.3284 22.3631 49.9519 23.9195C50.5754 25.476 50.8963 27.1443 50.8963 28.829C50.8963 30.5137 50.5754 32.1819 49.9519 33.7384C49.3284 35.2949 48.4145 36.7092 47.2625 37.9004C46.1104 39.0917 44.7427 40.0367 43.2374 40.6814C41.7322 41.3261 40.1189 41.658 38.4896 41.658C35.1991 41.658 32.0434 40.3063 29.7167 37.9004C27.39 35.4945 26.0829 32.2314 26.0829 28.829C26.0829 25.4265 27.39 22.1634 29.7167 19.7575C32.0434 17.3516 35.1991 16 38.4896 16Z" fill="#3F2FAA"/>
</g>
<defs>
<linearGradient id="paint0_linear_11852_66683" x1="28.4698" y1="-0.721683" x2="42.7633" y2="129.028" gradientUnits="userSpaceOnUse">
<stop stop-color="#6655D1"/>
<stop offset="1" stop-color="#6655D1"/>
</linearGradient>
<linearGradient id="paint1_linear_11852_66683" x1="29.2799" y1="2.33383" x2="42.4739" y2="122.103" gradientUnits="userSpaceOnUse">
<stop stop-color="#6655D1"/>
<stop offset="1" stop-color="#6655D1"/>
</linearGradient>
</defs>
</svg>
