<svg width="146" height="170" viewBox="0 0 146 170" fill="none" xmlns="http://www.w3.org/2000/svg">
<path d="M146 66.1582H0L18.6464 53.1582H127.354L146 66.1582Z" fill="url(#paint0_linear_1_64)"/>
<path d="M146 66H0L18.0579 170H126.021L146 66Z" fill="url(#paint1_linear_1_64)"/>
<mask id="mask0_1_64" style="mask-type:alpha" maskUnits="userSpaceOnUse" x="36" y="53" width="74" height="14">
<rect x="36.8828" y="53" width="73" height="13.0632" fill="#C4C4C4"/>
</mask>
<g mask="url(#mask0_1_64)">
<g filter="url(#filter0_f_1_64)">
<ellipse cx="73.3579" cy="53.2263" rx="25.3579" ry="4.22632" fill="#160438"/>
</g>
</g>
<g clip-path="url(#clip0_1_64)">
<path d="M103.543 0.417443L96.7526 1.39598C96.3027 1.47041 95.8866 1.69524 95.5647 2.03795C95.2427 2.38066 95.0314 2.8235 94.9615 3.30242L94.5811 7.5236C94.5068 8.01751 94.3049 8.47972 93.9982 8.85866C93.6914 9.23759 93.2918 9.51836 92.8438 9.66963L89.7371 10.6077C88.8621 10.8742 88.0062 11.6672 87.835 12.3825C87.6638 13.0979 88.2344 13.496 89.1221 13.2767L95.0471 11.7954C95.4992 11.6679 95.9081 11.4065 96.2263 11.0416C96.5444 10.6766 96.7588 10.2231 96.8446 9.73374L97.3423 5.32697C97.4222 4.84998 97.6435 4.41277 97.9738 4.0794C98.3041 3.74603 98.7261 3.53405 99.1778 3.47451L100.446 3.32942C101.356 3.22482 105.245 2.14843 105.169 3.0696V1.84138C105.171 1.62668 105.127 1.4144 105.041 1.22C104.956 1.02559 104.83 0.853938 104.675 0.717543C104.519 0.581147 104.336 0.483438 104.141 0.431525C103.945 0.379612 103.741 0.374801 103.543 0.417443V0.417443Z" fill="#F8CC4D"/>
<path d="M101.939 5.29297C99.948 26.6283 87.2484 29.0612 82.6548 29.2501C81.7418 29.2839 81 29.8339 81 30.5998C81 31.3658 81.7418 31.99 82.658 31.9495C100.151 30.9372 104.088 14.039 104.954 5.31996L101.939 5.29297Z" fill="#DD7516"/>
<path d="M55.3465 12.3825C55.169 11.6672 54.3162 10.8742 53.4444 10.6077L50.3377 9.66962C49.8897 9.51836 49.4901 9.23759 49.1833 8.85865C48.8765 8.47971 48.6747 8.01751 48.6004 7.5236L48.22 3.30242C48.151 2.82309 47.9401 2.3797 47.6179 2.03681C47.2958 1.69391 46.8792 1.46941 46.4289 1.39597L39.6415 0.417441C38.7349 0.285846 37.9836 0.930328 38.0089 1.85487V3.07297C37.9328 2.1518 41.8131 3.23831 42.7261 3.34291L43.9942 3.488C44.4453 3.54821 44.8666 3.7605 45.1963 4.09381C45.526 4.42712 45.7468 4.86397 45.8265 5.34047L46.3274 9.74723C46.4151 10.2353 46.6312 10.6869 46.9505 11.0495C47.2698 11.4121 47.6792 11.6707 48.1312 11.7954L54.0689 13.2632C54.9471 13.4825 55.524 13.0945 55.3465 12.3825Z" fill="#F8CC4D"/>
<path d="M60.5189 29.2343C55.938 29.0622 43.2574 26.4708 41.2158 5.30078L38.2422 5.47287C39.1425 14.2459 43.1432 30.9282 60.5189 31.9236C61.4319 31.9742 62.1737 31.3499 62.1737 30.5739C62.1737 29.7978 61.4446 29.268 60.5189 29.2343Z" fill="#DD7516"/>
<path d="M103.542 1.49298L96.752 2.47152C96.302 2.54595 95.886 2.77078 95.564 3.11349C95.242 3.45621 95.0308 3.89904 94.9609 4.37796L94.5804 8.59577C94.5066 9.09029 94.3051 9.55321 93.9983 9.93279C93.6915 10.3124 93.2916 10.5936 92.8432 10.7452L89.7364 11.6832C88.8615 11.9498 88.0055 12.7427 87.8343 13.4581C87.6632 14.1734 88.2338 14.5716 89.1214 14.3522L95.0465 12.8844C95.4986 12.7569 95.9075 12.4955 96.2256 12.1306C96.5438 11.7657 96.7582 11.3122 96.8439 10.8228L97.3416 6.41601C97.4206 5.93858 97.6416 5.50079 97.9721 5.16724C98.3026 4.8337 98.7251 4.62206 99.1772 4.56355L100.445 4.41846C101.355 4.31385 102.053 4.97858 101.973 5.90312C100.131 27.6704 87.2764 30.1336 82.6353 30.309C81.7223 30.3428 80.9805 30.8928 80.9805 31.6587C80.9805 32.4247 81.7223 33.0489 82.6385 33.0084C102.908 31.8443 104.975 9.32799 105.147 2.94054C105.15 2.72628 105.109 2.51379 105.027 2.31848C104.944 2.12318 104.821 1.94996 104.667 1.81137C104.514 1.67279 104.333 1.57232 104.139 1.51725C103.944 1.46218 103.74 1.45389 103.542 1.49298V1.49298Z" fill="#F4A024"/>
<path d="M91.6095 11.1203L94.1457 10.7559L91.5144 11.9605L94.1457 11.4914L91.432 12.6522H93.835L91.3179 13.327L93.9174 12.912L91.2418 13.7961C91.2418 13.7961 90.3732 11.4914 91.6095 11.1203Z" fill="#ED9118"/>
<path d="M82.0821 30.3223L84.8908 30.3965L82.2913 31.1624L84.8908 31.1321L82.2089 31.8542L84.577 32.2928L82.0947 32.5391L84.6625 32.5628L82.0186 33.0014C82.0186 33.0014 80.8457 30.6901 82.0821 30.3223Z" fill="#ED9118"/>
<path d="M39.6343 1.49354L46.4216 2.47207C46.872 2.5455 47.2886 2.77001 47.6107 3.1129C47.9329 3.4558 48.1438 3.89918 48.2128 4.37852L48.5932 8.59633C48.667 9.09084 48.8686 9.55376 49.1753 9.93334C49.4821 10.3129 49.8821 10.5942 50.3304 10.7457L53.4372 11.6838C54.3153 11.9503 55.1681 12.7433 55.3393 13.4586C55.5105 14.174 54.9399 14.5721 54.049 14.3528L48.1304 12.885C47.6779 12.7582 47.2686 12.4971 46.9503 12.132C46.6321 11.7669 46.4179 11.3131 46.3329 10.8233L45.832 6.41656C45.7532 5.93963 45.5327 5.50221 45.2028 5.16872C44.873 4.83522 44.4512 4.62328 43.9996 4.5641L42.7316 4.41901C41.8249 4.31441 41.1275 4.97913 41.2036 5.90367C43.0486 27.6709 55.9036 30.1341 60.5415 30.3096C61.4577 30.3433 62.1963 30.8933 62.1963 31.6593C62.1963 32.4252 61.4545 33.0495 60.5415 33.009C40.2715 31.8449 38.2014 9.32854 38.0334 2.94109C37.9859 2.0098 38.7277 1.36194 39.6343 1.49354Z" fill="#F4A024"/>
<path d="M52.0791 11.214L49.543 10.8496L52.171 12.0542L49.543 11.5852L52.2566 12.7459H49.8536L52.3707 13.4208L49.768 13.0091L52.4468 13.8831C52.4468 13.8831 53.3155 11.5886 52.0791 11.214Z" fill="#DD7516"/>
<path d="M61.6076 30.418L58.7988 30.4922L61.3952 31.2615L58.7988 31.2278L61.4808 31.9533L59.1095 32.3784L61.5949 32.6281L59.0271 32.6517L61.671 33.087C61.671 33.087 62.8408 30.7925 61.6076 30.418Z" fill="#DD7516"/>
<path d="M84.139 55.7286L59.2438 55.4688L56.8281 59.2682C56.8281 59.2682 70.5929 62.8415 87.2014 59.312L84.139 55.7286Z" fill="#9B481E"/>
<path d="M81.938 60.0808C70.3352 59.2372 66.7815 56.1026 65.7702 54.6348L59.2555 55.4682L56.8398 59.2676C56.8398 59.2676 67.7832 62.2808 81.938 60.0808Z" fill="#7F300F"/>
<path d="M84.1374 55.7285C80.0639 56.4547 75.9389 56.8047 71.8087 56.7745C67.5917 56.7382 63.3862 56.3012 59.2422 55.4686C63.1667 53.615 67.4137 52.6608 71.7072 52.668C75.9982 52.818 80.2205 53.8576 84.1374 55.7285V55.7285Z" fill="#F4A024"/>
<path d="M78.0319 51.3081C78.0319 51.3081 78.0097 53.4103 79.804 53.8894C79.804 53.8894 72.7346 56.5382 63.6172 53.6296C63.6172 53.6296 65.1452 53.2179 65.3037 51.0449L78.0319 51.3081Z" fill="#DD7516"/>
<path d="M77.9564 39.1836H65.2188C67.7549 41.3229 69.34 43.5195 69.34 45.6284C69.3907 50.2241 65.3773 51.1959 65.298 51.0576C65.298 51.0576 71.7334 53.2137 78.0262 51.3208C77.9501 51.4524 73.9367 50.5447 73.8828 45.6858C73.8733 43.5431 75.4362 41.3397 77.9564 39.1836Z" fill="#F4A024"/>
<path d="M79.2447 38.4785C76.8481 41.1577 66.6877 40.8844 63.9867 38.4785C63.3273 37.8779 63.3273 35.661 63.9867 35.057C66.6845 32.577 76.8481 32.3306 79.2447 35.057C79.8312 35.7184 79.8312 37.8138 79.2447 38.4785Z" fill="#DD7516"/>
<path d="M67.8089 40.5195C69.3939 42.3113 70.1675 44.0254 70.1801 45.6653C70.2055 48.4693 68.9121 50.0349 67.625 50.8717C68.4444 51.0284 69.2708 51.1411 70.1009 51.2091L70.0692 51.1282C70.3951 49.3266 70.5354 47.4925 70.4876 45.6585C70.4667 44.0419 70.3523 42.4282 70.1453 40.8266C69.3618 40.7692 68.5819 40.6667 67.8089 40.5195V40.5195Z" fill="#ED9118"/>
<path d="M81.5111 34.9722C78.4044 38.5017 65.2324 38.1778 61.7357 34.9722C60.8798 34.186 60.8798 31.3112 61.7357 30.525C65.2229 27.3127 78.4044 26.9922 81.5111 30.525C82.272 31.3922 82.272 34.1051 81.5111 34.9722Z" fill="#DD7516"/>
<path d="M64.373 37.3242C64.3912 37.4962 64.4465 37.6613 64.5347 37.8067C65.6443 38.819 68.6971 39.4939 71.9529 39.5141C75.123 39.5141 77.7416 38.8831 78.6356 37.8708C78.7049 37.7599 78.7513 37.6345 78.7719 37.5031C76.5833 38.1281 74.3232 38.4234 72.0575 38.3804C69.4621 38.4149 66.8751 38.0594 64.373 37.3242V37.3242Z" fill="#F4A024"/>
<path d="M91.9343 5.09293C91.9343 18.7654 87.2139 33.5513 71.5882 33.5513C55.9625 33.5513 51.2422 18.7654 51.2422 5.09293C64.4983 0.742461 78.6782 0.742461 91.9343 5.09293Z" fill="#F4A024"/>
<path d="M91.9343 5.09293C91.9343 18.7654 87.2139 33.5513 71.5882 33.5513C55.9625 33.5513 51.2422 18.7654 51.2422 5.09293C64.4983 0.742461 78.6782 0.742461 91.9343 5.09293Z" fill="#F4A024"/>
<path d="M89.2177 21.151C91.1642 16.3123 91.9345 10.6132 91.9345 5.09297C85.3376 2.95835 78.4834 1.85915 71.5884 1.83008C70.8234 1.83008 70.0699 1.8447 69.3281 1.87394C70.0826 6.52703 73.5571 18.8397 89.2177 21.151Z" fill="#F7B53C"/>
<path d="M51.2771 5.08008H51.2422C51.2422 18.7525 55.9625 33.5385 71.5882 33.5385C78.905 33.5385 83.8282 30.2992 86.9984 25.4403C79.9326 25.4219 72.9794 23.5555 66.7505 20.0052C60.5215 16.4549 55.2079 11.3295 51.2771 5.08008V5.08008Z" fill="#ED9118"/>
<path d="M61.9662 32.125C61.8521 32.9922 62.0169 34.055 62.2832 34.298C63.7922 35.6814 67.7201 36.6127 72.0663 36.6127C76.2319 36.6127 79.7001 35.7287 80.9047 34.3621C81.1805 34.0483 81.3137 32.9922 81.2218 32.1283C78.4479 33.6636 75.2175 34.4431 71.6003 34.4431C67.9832 34.4431 64.7369 33.6636 61.9662 32.125Z" fill="#F4A024"/>
<path d="M71.5882 8.35665C64.6932 8.32796 57.839 7.22875 51.2422 5.09375C57.7544 7.67217 64.6403 9.01743 71.5882 9.06861C78.5362 9.01694 85.422 7.6717 91.9343 5.09375C85.3374 7.22838 78.4832 8.32758 71.5882 8.35665V8.35665Z" fill="white"/>
<path d="M88.8645 5.09383C83.2493 6.82875 77.4341 7.72141 71.5872 7.74599C65.7396 7.72448 59.9234 6.83524 54.3066 5.10395C65.5866 1.57733 77.5814 1.57733 88.8613 5.10395L88.8645 5.09383Z" fill="#DD7516"/>
<path d="M60.5332 6.65058C64.1806 7.36078 67.8797 7.72774 71.5875 7.74721C75.2899 7.731 78.9837 7.36742 82.626 6.6607C75.3246 5.21206 67.8346 5.21206 60.5332 6.6607V6.65058Z" fill="#C15F0E"/>
<path d="M75.613 40.7266C74.7104 40.8665 73.7988 40.9297 72.8867 40.9155C73.172 41.4756 73.0642 43.372 72.9755 44.4146C73.3844 42.002 75.613 40.7266 75.613 40.7266Z" fill="#F8BF47"/>
<path d="M75.7083 51.0381C74.947 51.1985 74.1732 51.2821 73.3972 51.2878C73.6698 50.8559 73.2863 48.7571 73.1816 47.7988C73.6191 49.9718 75.7083 51.0381 75.7083 51.0381Z" fill="#F8BF47"/>
<path d="M77.4044 51.9766C76.0557 52.3742 74.6553 52.536 73.2578 52.4557C73.2578 52.4557 73.2578 54.1428 73.5304 54.4431C73.5304 54.4431 76.5865 54.6085 78.8975 53.802C78.8975 53.802 77.3188 53.225 77.4044 51.9766Z" fill="#F4A024"/>
<path d="M60.8438 55.2318C61.7519 54.8091 62.6811 54.4397 63.6271 54.125C63.6271 54.125 66.1316 55.3971 71.7998 55.1373C71.7998 55.1305 67.6311 56.1057 60.8438 55.2318Z" fill="#DD7516"/>
<path d="M96.1094 2.68515C96.1094 2.68515 100.139 1.23422 104.035 1.49404C104.044 1.50079 97.089 2.70539 96.1094 2.68515Z" fill="white"/>
<path d="M39.3027 1.47779C39.3027 1.47779 44.0294 2.52718 46.9428 2.63178C46.9428 2.63178 40.3425 1.28546 39.3027 1.47779Z" fill="white"/>
<path d="M52.9726 13C52.9726 13 57.1635 29.0041 65.8815 30.6912C65.8815 30.6912 58.1938 25.3497 52.9726 13Z" fill="#F4A024"/>
<path d="M80.6294 7.62668L82.3381 6.32422L81.1144 8.13956L82.3381 9.95491L80.6294 8.65245L78.9238 9.95491L80.1475 8.13956L78.9238 6.32422L80.6294 7.62668Z" fill="white"/>
<path d="M103.845 1.20947L104.733 0.53125L104.096 1.47604L104.733 2.41745L103.845 1.7426L102.961 2.41745L103.595 1.47604L102.961 0.53125L103.845 1.20947Z" fill="white"/>
<path d="M42.238 1.81547L43.1225 1.14062L42.4884 2.08204L43.1225 3.02683L42.238 2.3486L41.3535 3.02683L41.9875 2.08204L41.3535 1.14062L42.238 1.81547Z" fill="white"/>
<path d="M78.0295 51.099L78.9013 50.63L78.2799 51.3318L78.9266 52.1282L78.0358 51.5208L77.1672 51.9595L77.7854 51.288L77.1387 50.4883L78.0295 51.099Z" fill="white"/>
<path d="M71.5 51.9698C71.5 51.9698 74.9396 52.1891 77.9164 51.2949C77.9291 51.3017 76.325 52.6008 71.5 51.9698Z" fill="white"/>
<path d="M59.2422 55.4688C59.2422 55.4688 70.9084 58.3774 84.1374 55.7286C84.1374 55.7286 72.5378 59.0758 59.2422 55.4688Z" fill="white"/>
<path d="M78.2695 11.4915C78.2695 11.4915 83.6429 12.0145 88.8642 9.95623C88.8642 9.95623 87.146 12.5072 82.0801 13.3305C82.0801 13.3305 85.7162 13.5937 88.0748 13.182C88.0748 13.182 86.1727 15.1526 84.0456 15.1526C84.0456 15.1526 86.2647 15.6654 88.8642 14.0289C90.1363 12.21 90.8423 10.0132 90.8836 7.74609C88.1224 9.0688 85.6021 10.1081 78.2695 11.4915Z" fill="#F8CC4D"/>
<path d="M72.8851 34.6969C75.6926 34.6977 78.4649 34.0326 81.0007 32.75C81.0007 32.75 80.9785 33.8028 80.7217 34.0997C80.4649 34.3966 76.4578 36.0095 72.7266 35.9083C72.7266 35.9083 75.0598 35.5709 76.3183 34.9905C75.169 34.9748 74.022 34.8768 72.8851 34.6969V34.6969Z" fill="#F8BF47"/>
<path d="M77.8073 37.9727C77.7662 38.1054 77.6963 38.2259 77.6032 38.3244C77.5101 38.4229 77.3964 38.4966 77.2715 38.5395C76.8752 38.6374 74.1964 39.1233 72.1992 38.85C72.1897 38.85 76.2 38.6104 77.8073 37.9727Z" fill="#F8BF47"/>
<path d="M82.6454 55.4851C82.6454 55.4851 80.496 54.3109 79.583 54.1894C79.583 54.1894 77.9979 54.9554 73.8767 55.0195C74.4197 55.5506 75.0959 55.9023 75.8232 56.0318C75.8232 56.0318 80.3724 56.0723 82.6454 55.4851Z" fill="#F8BF47"/>
<path d="M76.6094 57.3483C78.3028 58.1781 80.0896 58.7724 81.9257 59.1164C81.9257 59.1164 84.7979 59.2851 85.6887 58.9443L83.5964 56.6836L84.4397 58.6676L81.6816 57.3179L83.3491 58.4483C83.3491 58.4483 79.4276 58.2965 76.6094 57.3483Z" fill="#B25932"/>
<path opacity="0.1" d="M57.3162 23.801C58.9561 22.0912 58.9561 19.319 57.3162 17.6092C55.6763 15.8993 53.0175 15.8993 51.3775 17.6092C49.7376 19.319 49.7376 22.0912 51.3775 23.801C53.0175 25.5108 55.6763 25.5108 57.3162 23.801Z" fill="white"/>
<path opacity="0.1" d="M90.4314 7.6721C92.0714 5.96227 92.0714 3.19008 90.4314 1.48024C88.7915 -0.229588 86.1327 -0.229585 84.4928 1.48025C82.8529 3.19008 82.8529 5.96226 84.4928 7.6721C86.1327 9.38193 88.7915 9.38193 90.4314 7.6721Z" fill="white"/>
<path opacity="0.2" d="M55.8793 23.5239C57.4623 22.8443 58.2172 20.9553 57.5654 19.3048C56.9135 17.6542 55.1018 16.8671 53.5187 17.5468C51.9357 18.2264 51.1808 20.1154 51.8326 21.7659C52.4845 23.4165 54.2962 24.2036 55.8793 23.5239Z" fill="white"/>
<path opacity="0.2" d="M88.9965 7.39502C90.5795 6.71539 91.3344 4.8264 90.6826 3.17585C90.0307 1.52531 88.219 0.738219 86.6359 1.41785C85.0529 2.09749 84.298 3.98648 84.9498 5.63702C85.6016 7.28757 87.4134 8.07466 88.9965 7.39502Z" fill="white"/>
<path opacity="0.7" d="M54.698 18.3185C54.5646 19.3041 54.698 20.5342 53.0176 20.6879C53.5153 20.9301 54.0713 21.1415 54.4186 21.6274C54.7268 22.0602 54.9782 22.7883 55.0306 23.3188C55.125 22.7468 54.9974 22.2132 55.3366 21.6274C55.4594 21.4114 55.6277 21.2273 55.8287 21.089C56.0298 20.9508 56.2584 20.862 56.4972 20.8294C55.9597 20.5219 55.4922 20.568 55.1662 19.8984C55.0388 19.6454 54.9329 19.3812 54.8499 19.1088C54.7703 18.8344 54.7983 18.4077 54.6287 18.207L54.698 18.3185Z" fill="white"/>
<path opacity="0.7" d="M87.8133 2.1896C87.6798 3.1752 87.8133 4.40528 86.1328 4.55903C86.6305 4.80121 87.1865 5.01262 87.5338 5.4985C87.842 5.93134 88.0935 6.65939 88.1458 7.18986C88.2402 6.61787 88.1126 6.08433 88.4518 5.4985C88.5746 5.28248 88.7429 5.09839 88.944 4.96014C89.145 4.82189 89.3736 4.73311 89.6124 4.7005C89.0749 4.39298 88.6074 4.4391 88.2815 3.76948C88.154 3.51649 88.0481 3.25229 87.9652 2.97993C87.8855 2.70547 87.9135 2.27878 87.7439 2.07812L87.8133 2.1896Z" fill="white"/>
</g>
<defs>
<filter id="filter0_f_1_64" x="28" y="29" width="90.7158" height="48.4526" filterUnits="userSpaceOnUse" color-interpolation-filters="sRGB">
<feFlood flood-opacity="0" result="BackgroundImageFix"/>
<feBlend mode="normal" in="SourceGraphic" in2="BackgroundImageFix" result="shape"/>
<feGaussianBlur stdDeviation="10" result="effect1_foregroundBlur_1_64"/>
</filter>
<linearGradient id="paint0_linear_1_64" x1="367548" y1="27691" x2="367543" y2="32262.3" gradientUnits="userSpaceOnUse">
<stop stop-color="#4A3C9F"/>
<stop offset="1" stop-color="#26264F"/>
</linearGradient>
<linearGradient id="paint1_linear_1_64" x1="43.5" y1="65.6836" x2="44.146" y2="142.818" gradientUnits="userSpaceOnUse">
<stop stop-color="#3F338C"/>
<stop offset="1" stop-color="#272054" stop-opacity="0"/>
</linearGradient>
<clipPath id="clip0_1_64">
<rect width="67.1788" height="60.4834" fill="white" transform="translate(38 0.400391)"/>
</clipPath>
</defs>
</svg>
